<svg width="584" height="459" viewBox="0 0 584 459" fill="none" xmlns="http://www.w3.org/2000/svg">
  <rect width="584" height="459" fill="#E5E5E5"/>
  <g id="Group 240">
  <path id="Vector" d="M583.58 414.397C581.763 399.511 572.711 384.844 558.781 380C564.275 395.322 564.274 412.13 558.778 427.451C556.638 433.351 553.654 439.687 555.667 445.634C556.92 449.335 559.985 452.166 563.41 453.936C566.836 455.707 570.638 456.55 574.392 457.377L575.131 458C581.091 444.284 585.396 429.283 583.58 414.397Z" fill="#F0F0F0"/>
  <path id="Vector_2" d="M559.089 380.598C567.245 389.873 572.314 401.521 573.576 413.887C573.895 416.544 573.798 419.235 573.291 421.862C572.715 424.404 571.479 426.744 569.711 428.638C568.098 430.437 566.242 432.088 565.088 434.254C564.513 435.372 564.177 436.6 564.103 437.859C564.029 439.117 564.218 440.377 564.657 441.556C565.676 444.524 567.685 446.942 569.731 449.238C572.002 451.787 574.401 454.398 575.366 457.778C575.483 458.187 576.102 457.979 575.985 457.57C574.306 451.691 568.682 448.351 566.001 443.055C564.749 440.584 564.224 437.715 565.397 435.107C566.423 432.826 568.335 431.122 569.984 429.314C571.736 427.493 573.021 425.263 573.728 422.821C574.365 420.229 574.564 417.546 574.314 414.886C573.847 408.89 572.454 403.005 570.185 397.448C567.631 391.091 564.024 385.224 559.521 380.101C559.242 379.785 558.812 380.283 559.089 380.598H559.089Z" fill="white"/>
  <path id="Vector_3" d="M573.42 408.99C575.405 408.525 577.154 407.394 578.355 405.799C579.556 404.204 580.13 402.249 579.975 400.283C579.943 399.886 579.301 399.916 579.333 400.314C579.481 402.145 578.946 403.966 577.825 405.449C576.703 406.932 575.07 407.979 573.218 408.402C572.816 408.494 573.02 409.082 573.42 408.99V408.99Z" fill="white"/>
  <path id="Vector_4" d="M570.822 427.344C566.887 425.079 563.981 421.467 562.686 417.228C562.558 416.808 561.888 417.021 562.016 417.441C563.373 421.849 566.404 425.603 570.505 427.951C570.896 428.175 571.211 427.567 570.822 427.344Z" fill="white"/>
  <path id="Vector_5" d="M566.618 391.403C565.954 391.898 565.221 392.127 564.486 392.068C563.752 392.01 563.038 391.666 562.409 391.068C562.087 390.76 561.826 391.582 562.146 391.888C562.843 392.544 563.631 392.922 564.443 392.989C565.254 393.057 566.064 392.811 566.801 392.275C566.874 392.233 566.933 392.15 566.968 392.043C567.002 391.935 567.009 391.811 566.988 391.695C566.963 391.58 566.91 391.485 566.841 391.43C566.772 391.375 566.692 391.366 566.618 391.403L566.618 391.403Z" fill="white"/>
  <path id="Vector_6" d="M517 406.587C517.218 406.732 517.437 406.878 517.656 407.029C520.583 409 523.349 411.211 525.926 413.64C526.129 413.825 526.331 414.015 526.527 414.205C532.676 420.127 537.698 427.165 541.337 434.964C542.783 438.068 543.995 441.281 544.965 444.574C546.303 449.121 547.401 454.161 550.051 457.881C550.323 458.273 550.619 458.646 550.936 459H574.88C574.935 458.972 574.989 458.95 575.044 458.922L576 458.966C575.962 458.793 575.918 458.614 575.88 458.441C575.858 458.34 575.831 458.239 575.809 458.139C575.792 458.071 575.776 458.004 575.765 457.943C575.76 457.92 575.754 457.898 575.749 457.881C575.738 457.82 575.721 457.764 575.71 457.708C575.47 456.707 575.222 455.705 574.967 454.704C574.967 454.698 574.967 454.698 574.962 454.693C573.091 447.044 570.34 439.65 566.768 432.665C566.658 432.458 566.549 432.245 566.429 432.038C564.775 428.946 562.876 425.998 560.753 423.222C559.585 421.707 558.344 420.252 557.032 418.865C553.638 415.287 549.715 412.278 545.407 409.949C536.819 405.306 526.877 403.527 517.699 406.363C517.464 406.436 517.235 406.508 517 406.587Z" fill="#F0F0F0"/>
  <path id="Vector_7" d="M516.285 407.662C528.387 410.065 539.423 416.219 547.827 425.249C549.671 427.161 551.202 429.352 552.363 431.74C553.419 434.103 553.823 436.706 553.533 439.278C553.31 441.682 552.804 444.115 553.17 446.531C553.376 447.765 553.84 448.941 554.532 449.983C555.224 451.025 556.129 451.909 557.187 452.577C559.78 454.309 562.841 455.007 565.858 455.586C569.207 456.228 572.697 456.842 575.493 458.934C575.832 459.187 576.205 458.647 575.867 458.394C571.003 454.755 564.484 455.518 559.163 452.949C556.68 451.75 554.544 449.796 553.929 447.018C553.391 444.59 553.91 442.08 554.157 439.649C554.477 437.144 554.179 434.598 553.288 432.235C552.252 429.795 550.808 427.549 549.018 425.594C545.059 421.127 540.423 417.31 535.278 414.283C529.425 410.795 523.018 408.335 516.336 407.007C515.922 406.925 515.874 407.581 516.285 407.662V407.662Z" fill="white"/>
  <path id="Vector_8" d="M544.85 420.871C546.277 419.206 547.038 417.109 546.999 414.955C546.959 412.802 546.12 410.732 544.632 409.116C544.33 408.79 543.786 409.223 544.089 409.55C545.477 411.053 546.258 412.981 546.291 414.986C546.324 416.992 545.606 418.942 544.268 420.486C543.977 420.822 544.561 421.205 544.85 420.871V420.871Z" fill="white"/>
  <path id="Vector_9" d="M553.615 437.258C549.312 437.711 544.991 436.57 541.515 434.065C541.17 433.816 540.792 434.348 541.135 434.597C544.758 437.198 549.257 438.375 553.734 437.895C554.161 437.849 554.039 437.212 553.615 437.258V437.258Z" fill="white"/>
  <path id="Vector_10" d="M529.377 410.164C528.977 411.014 528.393 411.741 527.677 412.279C526.961 412.817 526.135 413.15 525.275 413.247C524.834 413.295 524.959 414.046 525.398 413.998C526.348 413.886 527.259 413.518 528.051 412.925C528.844 412.332 529.493 411.534 529.943 410.598C529.992 410.514 530.01 410.412 529.994 410.314C529.978 410.215 529.929 410.127 529.856 410.067C529.781 410.01 529.689 409.988 529.599 410.006C529.509 410.024 529.43 410.081 529.377 410.164V410.164Z" fill="white"/>
  <path id="Vector_11" d="M89.8028 132.433C68.2272 143.879 51.2273 166.479 52.0271 191C72.1095 173.569 97.6747 163.844 124.199 163.547C134.429 163.47 145.815 164.455 153.68 157.874C158.574 153.78 161.083 147.364 161.767 140.999C162.451 134.633 161.505 128.217 160.561 121.885L161.075 120.373C136.719 119.018 111.378 120.987 89.8028 132.433Z" fill="#F0F0F0"/>
  <path id="Vector_12" d="M53.0574 191.685C62.303 173.452 76.902 158.677 94.781 149.459C98.5957 147.405 102.702 145.981 106.947 145.241C111.106 144.657 115.341 145.229 119.212 146.896C122.852 148.377 126.409 150.325 130.335 150.87C132.349 151.118 134.391 150.926 136.328 150.306C138.265 149.686 140.052 148.653 141.573 147.273C145.449 143.936 147.928 139.366 150.201 134.811C152.725 129.754 155.268 124.459 159.796 120.966C160.344 120.542 159.673 119.692 159.126 120.115C151.248 126.193 149.471 136.976 143.052 144.286C140.056 147.697 136.042 150.2 131.439 149.884C127.414 149.609 123.745 147.603 120.072 146.071C116.319 144.388 112.222 143.674 108.139 143.993C103.87 144.509 99.7173 145.768 95.8593 147.716C87.1054 151.958 79.055 157.59 72.0028 164.403C63.9123 172.134 57.1677 181.23 52.061 191.298C51.7451 191.922 52.7437 192.305 53.0574 191.685H53.0574Z" fill="white"/>
  <path id="Vector_13" d="M88.8973 151.252C86.9055 148.891 83.9432 147.181 80.5394 146.427C77.1357 145.672 73.5121 145.924 70.3159 147.136C69.6702 147.383 70.1133 148.208 70.7599 147.96C73.7337 146.827 77.1091 146.594 80.2769 147.301C83.4447 148.009 86.1962 149.611 88.0349 151.818C88.4351 152.298 89.2953 151.729 88.8974 151.252H88.8973Z" fill="white"/>
  <path id="Vector_14" d="M117.909 146.441C116.666 153.074 112.845 159.017 107.208 163.085C106.649 163.487 107.334 164.293 107.892 163.891C113.75 159.647 117.713 153.455 118.991 146.55C119.112 145.892 118.029 145.787 117.909 146.441V146.441Z" fill="white"/>
  <path id="Vector_15" d="M65.0962 171.888C65.8857 172.845 66.4743 174.034 66.8093 175.348C67.1443 176.663 67.2152 178.061 67.0154 179.419C66.9114 180.115 67.7785 180.225 67.8819 179.534C68.0971 178.033 68.0174 176.488 67.6498 175.035C67.2822 173.581 66.638 172.264 65.7734 171.197C65.6985 171.087 65.5936 171.018 65.4798 171.003C65.3659 170.988 65.2519 171.028 65.1606 171.115C65.0714 171.207 65.0145 171.34 65.0024 171.485C64.9903 171.63 65.024 171.774 65.0962 171.888Z" fill="white"/>
  <path id="Vector_16" d="M117.208 244C117.301 243.566 117.394 243.131 117.495 242.693C118.769 236.862 120.505 231.146 122.684 225.602C122.846 225.17 123.016 224.735 123.19 224.31C128.579 211.01 136.335 198.85 146.063 188.447C149.937 184.312 154.114 180.483 158.556 176.996C164.691 172.18 171.717 167.458 175.819 161.039C176.254 160.374 176.648 159.682 177 158.967L162.879 120.767C162.804 120.696 162.738 120.622 162.663 120.552L162.168 119C161.926 119.163 161.679 119.338 161.438 119.502C161.298 119.596 161.16 119.699 161.02 119.793C160.927 119.859 160.835 119.925 160.748 119.978C160.717 120 160.686 120.022 160.663 120.04C160.576 120.094 160.501 120.154 160.422 120.204C159.039 121.178 157.661 122.163 156.287 123.16C156.278 123.163 156.278 123.163 156.273 123.175C145.82 130.797 135.898 139.38 127.565 149.231C127.314 149.527 127.055 149.827 126.811 150.141C123.078 154.602 119.709 159.369 116.735 164.392C115.116 167.148 113.634 169.986 112.295 172.896C108.849 180.42 106.581 188.452 105.574 196.697C103.57 213.135 106.725 230.045 116.455 243.016C116.705 243.348 116.951 243.672 117.208 244Z" fill="#F0F0F0"/>
  <path id="Vector_17" d="M117.365 243.302C114.041 223.003 117.069 202.151 126.019 183.708C127.877 179.703 130.342 176.021 133.323 172.799C136.326 169.756 140.073 167.59 144.174 166.525C147.979 165.453 151.992 164.806 155.475 162.809C157.243 161.76 158.774 160.342 159.967 158.646C161.16 156.951 161.989 155.018 162.398 152.973C163.549 147.905 162.846 142.717 161.986 137.669C161.031 132.063 159.952 126.256 161.534 120.66C161.726 119.981 160.683 119.718 160.492 120.395C157.739 130.132 162.677 139.851 161.825 149.67C161.428 154.251 159.675 158.738 155.783 161.338C152.379 163.611 148.241 164.281 144.38 165.332C140.364 166.312 136.644 168.28 133.545 171.064C130.413 174.121 127.813 177.7 125.857 181.646C121.315 190.46 118.16 199.948 116.506 209.762C114.558 220.952 114.499 232.4 116.334 243.61C116.448 244.304 117.478 243.991 117.365 243.302H117.365Z" fill="white"/>
  <path id="Vector_18" d="M123.617 188.802C120.337 187.641 116.772 187.743 113.557 189.089C110.342 190.435 107.687 192.937 106.067 196.149C105.741 196.8 106.689 197.362 107.016 196.71C108.519 193.717 110.992 191.386 113.988 190.139C116.984 188.892 120.306 188.811 123.354 189.911C124.017 190.149 124.276 189.038 123.617 188.802V188.802Z" fill="white"/>
  <path id="Vector_19" d="M143.062 165.837C146.116 172.179 146.789 179.5 144.946 186.341C144.763 187.019 145.771 187.282 145.954 186.605C147.859 179.483 147.144 171.865 143.952 165.273C143.648 164.645 142.759 165.212 143.062 165.837H143.062Z" fill="white"/>
  <path id="Vector_20" d="M116.422 220.095C117.812 220.262 119.14 220.772 120.285 221.579C121.43 222.386 122.356 223.465 122.981 224.719C123.3 225.363 124.253 224.784 123.936 224.145C123.239 222.762 122.215 221.572 120.952 220.677C119.689 219.783 118.226 219.211 116.691 219.013C116.548 218.982 116.399 219.007 116.273 219.082C116.148 219.158 116.056 219.278 116.016 219.419C115.981 219.563 116.004 219.714 116.08 219.841C116.156 219.967 116.279 220.058 116.422 220.095V220.095Z" fill="white"/>
  <path id="Vector_21" d="M329 92.6786H326.917V33.9757C326.917 29.5139 326.063 25.0959 324.404 20.9738C322.744 16.8516 320.312 13.1062 317.246 9.95126C314.179 6.79633 310.539 4.29369 306.533 2.58625C302.527 0.878813 298.233 4.33501e-06 293.896 0H173.021C164.263 -1.75096e-05 155.864 3.57953 149.672 9.95118C143.479 16.3228 140 24.9647 140 33.9756V356.024C140 365.035 143.479 373.677 149.672 380.049C155.864 386.42 164.263 390 173.021 390H293.896C302.654 390 311.053 386.421 317.246 380.049C323.438 373.677 326.917 365.035 326.917 356.025V134.464H329V92.6786Z" fill="#3F3D56"/>
  <path id="Vector_22" d="M295.308 9.00002H279.509C280.236 10.8288 280.513 12.813 280.317 14.7777C280.121 16.7425 279.457 18.6275 278.384 20.2668C277.311 21.906 275.861 23.2492 274.164 24.178C272.466 25.1068 270.572 25.5927 268.648 25.5928H199.309C197.386 25.5927 195.492 25.1068 193.794 24.178C192.096 23.2493 190.647 21.9061 189.574 20.2668C188.501 18.6275 187.837 16.7425 187.64 14.7777C187.444 12.813 187.722 10.8288 188.448 9H173.692C167.143 9 160.863 11.6709 156.232 16.425C151.601 21.1792 149 27.6273 149 34.3507V355.649C149 362.373 151.601 368.821 156.232 373.575C160.863 378.329 167.143 381 173.692 381H295.308C301.857 381 308.137 378.329 312.768 373.575C317.399 368.821 320 362.373 320 355.649V355.649V34.3507C320 31.0216 319.361 27.7251 318.12 24.6494C316.88 21.5737 315.061 18.7791 312.768 16.4251C310.475 14.071 307.753 12.2037 304.757 10.9297C301.762 9.65572 298.551 9.00001 295.308 9.00002V9.00002Z" fill="white"/>
  <path id="Vector_23" d="M234.5 197C220.161 197 206.144 192.631 194.221 184.444C182.299 176.258 173.006 164.623 167.519 151.01C162.031 137.397 160.596 122.417 163.393 107.966C166.191 93.5142 173.096 80.2395 183.235 69.8205C193.374 59.4015 206.292 52.3061 220.356 49.4315C234.42 46.5569 248.997 48.0323 262.245 53.671C275.492 59.3098 286.815 68.8587 294.782 81.1102C302.748 93.3616 307 107.765 307 122.5C306.978 142.252 299.333 161.188 285.741 175.155C272.15 189.121 253.722 196.978 234.5 197V197ZM234.5 49.3139C220.414 49.3139 206.644 53.6062 194.932 61.648C183.219 69.6898 174.091 81.1199 168.7 94.4929C163.309 107.866 161.899 122.581 164.647 136.778C167.395 150.975 174.178 164.015 184.139 174.25C194.099 184.486 206.79 191.456 220.605 194.28C234.421 197.104 248.741 195.654 261.755 190.115C274.769 184.576 285.892 175.196 293.718 163.16C301.544 151.125 305.721 136.975 305.721 122.5C305.7 103.097 298.19 84.4943 284.838 70.7739C271.486 57.0536 253.383 49.3359 234.5 49.3139V49.3139Z" fill="#3F3D56"/>
  <path id="Vector_24" d="M226.287 129.631C223.767 121.921 214.771 117.204 207.253 119.648C200.751 121.762 196.328 128.918 196.681 135.864C194.507 127.38 186.141 120.745 177.561 121.367C167.918 122.065 159.777 131.799 160.514 141.747C160.175 139.137 158.983 136.725 157.135 134.909C155.288 133.093 152.896 131.982 150.354 131.759C147.812 131.536 145.272 132.214 143.154 133.682C141.036 135.15 139.467 137.32 138.705 139.833L138.708 139.648C137.174 138.759 135.096 140.318 135.004 142.132C134.912 143.946 136.292 145.562 137.91 146.278C139.528 146.993 141.345 147.002 143.105 147C165.068 146.971 187.031 146.941 208.995 146.912C214.097 146.905 219.72 146.699 223.471 143.129C226.938 139.829 227.794 134.243 226.287 129.631Z" fill="#E4E4E4"/>
  <path id="Vector_25" d="M278.628 163.67C277.9 161.624 276.478 159.941 274.64 158.951C272.803 157.961 270.683 157.734 268.697 158.316C265.304 159.45 262.996 163.287 263.181 167.012C262.046 162.463 257.681 158.904 253.204 159.238C248.173 159.613 243.925 164.832 244.31 170.167C244.133 168.767 243.511 167.474 242.547 166.5C241.583 165.526 240.335 164.93 239.009 164.81C237.682 164.691 236.357 165.055 235.252 165.842C234.147 166.629 233.328 167.792 232.931 169.14L232.933 169.041C232.132 168.564 231.048 169.4 231 170.373C231.017 170.861 231.169 171.333 231.439 171.729C231.709 172.125 232.084 172.427 232.516 172.596C233.386 172.918 234.308 173.05 235.226 172.983C246.686 172.968 258.146 172.952 269.606 172.936C272.268 172.933 275.202 172.822 277.159 170.907C278.967 169.138 279.414 166.143 278.628 163.67Z" fill="#E4E4E4"/>
  <path id="Vector_26" d="M249 106C262.807 106 274 94.3594 274 80C274 65.6406 262.807 54 249 54C235.193 54 224 65.6406 224 80C224 94.3594 235.193 106 249 106Z" fill="#FF6582"/>
  <path id="Vector_27" d="M317.295 88.631C314.802 80.9213 305.904 76.2036 298.467 78.6483C292.036 80.7623 287.661 87.918 288.011 94.8644C285.86 86.3801 277.585 79.7449 269.098 80.3667C259.56 81.0654 251.507 90.7992 252.237 100.747C251.901 98.1373 250.722 95.7253 248.895 93.9093C247.068 92.0932 244.701 90.9819 242.187 90.7588C239.673 90.5356 237.161 91.2141 235.066 92.682C232.971 94.15 231.418 96.3196 230.665 98.8327L230.668 98.6484C229.15 97.7585 227.095 99.3179 227.004 101.132C226.913 102.946 228.278 104.562 229.879 105.278C231.478 105.993 233.276 106.002 235.017 106C256.741 105.971 278.466 105.941 300.19 105.912C305.237 105.905 310.8 105.699 314.509 102.129C317.938 98.8287 318.786 93.2429 317.295 88.631Z" fill="#E4E4E4"/>
  <path id="Vector_28" d="M269.189 129.357L274 125.06C270.263 124.6 268.727 126.876 268.098 128.677C265.179 127.324 262 129.098 262 129.098L271.626 133C271.14 131.552 270.295 130.288 269.189 129.357V129.357Z" fill="#3F3D56"/>
  <path id="Vector_29" d="M206.189 167.812L211 164.053C207.263 163.65 205.727 165.641 205.098 167.218C202.179 166.033 199 167.586 199 167.586L208.626 171C208.14 169.733 207.295 168.627 206.189 167.812V167.812Z" fill="#3F3D56"/>
  <path id="Vector_30" d="M196.189 101.357L201 97.0602C197.263 96.5997 195.727 98.8758 195.098 100.677C192.179 99.3235 189 101.098 189 101.098L198.626 105C198.14 103.552 197.295 102.288 196.189 101.357V101.357Z" fill="#3F3D56"/>
  <path id="Vector_31" d="M230.5 332C253.972 332 273 329.985 273 327.5C273 325.015 253.972 323 230.5 323C207.028 323 188 325.015 188 327.5C188 329.985 207.028 332 230.5 332Z" fill="#F0F0F0"/>
  <path id="Vector_32" d="M21.6857 252H221.303C226.421 252 231.375 253.869 235.288 257.276C239.201 260.682 241.822 265.408 242.687 270.617C243.553 275.826 242.607 281.184 240.018 285.743C237.428 290.301 233.361 293.768 228.535 295.53V311L214.793 296.81H21.6857C15.9332 296.807 10.4174 294.445 6.35088 290.244C2.28436 286.042 0 280.345 0 274.405C0 268.465 2.28436 262.768 6.35088 258.567C10.4174 254.365 15.9332 252.003 21.6857 252V252Z" fill="#00B0FF"/>
  <path id="Vector_33" d="M31.4413 269H206.559C206.941 269 207.308 268.842 207.578 268.561C207.848 268.279 208 267.898 208 267.5C208 267.102 207.848 266.721 207.578 266.439C207.308 266.158 206.941 266 206.559 266H31.4413C31.059 266 30.6924 266.158 30.4221 266.439C30.1519 266.721 30 267.102 30 267.5C30 267.898 30.1519 268.279 30.4221 268.561C30.6924 268.842 31.059 269 31.4413 269Z" fill="white"/>
  <path id="Vector_34" d="M31.4413 280H206.559C206.941 280 207.308 279.842 207.578 279.561C207.848 279.279 208 278.898 208 278.5C208 278.102 207.848 277.721 207.578 277.439C207.308 277.158 206.941 277 206.559 277H31.4413C31.059 277 30.6924 277.158 30.4221 277.439C30.1519 277.721 30 278.102 30 278.5C30 278.898 30.1519 279.279 30.4221 279.561C30.6924 279.842 31.059 280 31.4413 280Z" fill="white"/>
  <path id="Vector_35" d="M464.263 328.941C465.212 328.373 466.032 327.592 466.663 326.654C467.295 325.716 467.724 324.643 467.92 323.512C468.116 322.38 468.073 321.217 467.796 320.105C467.519 318.992 467.014 317.957 466.316 317.072L475 246L458.771 246.718L455.338 316.354C454.005 317.687 453.183 319.49 453.027 321.419C452.871 323.349 453.393 325.272 454.493 326.823C455.593 328.375 457.195 329.447 458.996 329.838C460.797 330.228 462.671 329.909 464.263 328.941V328.941Z" fill="#FFB6B6"/>
  <path id="Vector_36" d="M540.895 246L543 282.094L528.79 321L522 310.594L528.471 272.746L526.676 248.533L540.895 246Z" fill="#FFB6B6"/>
  <path id="Vector_37" d="M520.27 356.943L522 448.784L514.409 450L498 356L520.27 356.943Z" fill="#FFB6B6"/>
  <path id="Vector_38" d="M471 361.434L482.954 452H490.682L493 357L471 361.434Z" fill="#FFB6B6"/>
  <path id="Vector_39" d="M493 199C501.837 199 509 191.613 509 182.5C509 173.387 501.837 166 493 166C484.163 166 477 173.387 477 182.5C477 191.613 484.163 199 493 199Z" fill="#FFB6B6"/>
  <path id="Vector_40" d="M507.091 189.36C507.641 190.586 508.504 189.819 509.51 188.984C511.386 187.424 512.479 184.987 513.107 182.664C514.191 178.802 514.29 174.724 513.394 170.812C512.479 166.893 510.348 163.375 507.314 160.774C506.621 160.185 505.866 159.675 505.064 159.252C502.358 157.86 499.163 157.799 496.162 158.251C492.223 158.865 488.438 160.242 485.012 162.306C483.456 163.139 482.101 164.308 481.041 165.731C480.519 166.448 480.18 167.285 480.055 168.167C479.929 169.049 480.021 169.948 480.321 170.785C480.372 170.931 480.46 171.061 480.578 171.16C480.794 171.275 481.045 171.304 481.281 171.24C483.719 170.901 486.191 170.909 488.627 171.263C488.963 171.266 489.295 171.347 489.595 171.501C489.896 171.655 490.157 171.877 490.359 172.151C490.496 172.635 490.604 173.127 490.681 173.625C491.232 175.12 493.669 174.753 494.587 176.051C495.163 176.867 494.908 178.025 495.311 178.942C495.956 180.412 497.923 180.645 499.49 180.392C501.058 180.14 502.752 179.639 504.16 180.383C505.515 181.1 506.106 182.729 506.447 184.239C506.779 185.706 506.509 188.061 507.091 189.36Z" fill="#2F2E41"/>
  <path id="Vector_41" d="M522.334 305.963L529 321.981L522.334 343.534V365.842L496.805 366L496.24 338.566L492.806 366H466.811L462 311.013L468.902 298L522.334 305.963Z" fill="#2F2E41"/>
  <path id="Vector_42" d="M488.28 205L486.401 208.583C486.401 208.583 470.191 211.833 462 221.013L472.993 244.11L462.813 311L522.838 306.882L524.968 255.382L534 219.361C534 219.361 518.341 208.31 511.586 209.472L509.222 205H488.28Z" fill="#00B0FF"/>
  <path id="Vector_43" d="M477 223.38L462.057 221C462.057 221 457.966 246.218 458 251.976L476.035 255L477 223.38Z" fill="#00B0FF"/>
  <path id="Vector_44" d="M526.439 220.625L534.134 219C534.134 219 537.102 228.278 542 250.126L522 257L526.439 220.625Z" fill="#00B0FF"/>
  <path id="Vector_45" d="M491.999 458L464 457.999V457.653C464 454.828 465.148 452.118 467.192 450.12C469.236 448.123 472.008 447 474.898 447H474.899L492 447.001L491.999 458Z" fill="#2F2E41"/>
  <path id="Vector_46" d="M526 453.828L498.184 458L498.129 457.659C497.685 454.878 498.399 452.039 500.115 449.768C501.831 447.497 504.408 445.979 507.279 445.548L507.28 445.548L524.269 443L526 453.828Z" fill="#2F2E41"/>
  </g>
</svg>
