<svg width="378" height="336" viewBox="0 0 378 336" fill="none" xmlns="http://www.w3.org/2000/svg">
  <g id="undraw_Photos_re_pvh3 2" clip-path="url(#clip0_574:251)">
    <path id="Vector" d="M268.664 334.847C265.953 334.845 263.285 334.134 260.909 332.781L40.2803 207.826C36.5123 205.686 33.7178 202.086 32.5098 197.815C31.3018 193.544 31.779 188.951 33.8368 185.044L126.944 8.73936C127.965 6.80534 129.344 5.09859 131.002 3.71656C132.661 2.33453 134.566 1.30429 136.608 0.684657C138.651 0.0650248 140.792 -0.131861 142.908 0.105241C145.024 0.342344 147.075 1.00879 148.942 2.06653L369.571 127.022C373.339 129.162 376.134 132.762 377.342 137.033C378.55 141.304 378.072 145.896 376.015 149.803L282.908 326.108C281.891 328.046 280.513 329.755 278.855 331.138C277.196 332.521 275.288 333.549 273.243 334.163C271.756 334.616 270.214 334.846 268.664 334.847ZM262.243 330.257C265.368 332.026 269.044 332.438 272.462 331.401C275.88 330.364 278.761 327.964 280.47 324.728L373.577 148.423C375.282 145.185 375.677 141.38 374.676 137.841C373.675 134.303 371.36 131.319 368.238 129.546L147.609 4.59094C144.484 2.82111 140.808 2.40936 137.389 3.44626C133.971 4.48316 131.091 6.88378 129.381 10.12L36.2746 186.425C34.5697 189.662 34.1743 193.468 35.1752 197.006C36.1761 200.545 38.4915 203.528 41.6136 205.301L262.243 330.257Z" fill="#F2F2F2"/>
    <path id="Vector_2" d="M273.213 273.186C270.675 273.185 268.177 272.522 265.95 271.26L87.5783 170.237C85.8428 169.256 84.3111 167.931 83.0709 166.336C81.8307 164.742 80.9062 162.91 80.3505 160.945C79.7947 158.98 79.6186 156.921 79.8321 154.886C80.0457 152.85 80.6447 150.879 81.595 149.083L137.201 43.7883C138.15 41.9923 139.43 40.4074 140.97 39.124C142.51 37.8406 144.279 36.8838 146.175 36.3084C148.072 35.7331 150.06 35.5503 152.025 35.7705C153.99 35.9907 155.894 36.6097 157.628 37.592L336.001 138.615C337.735 139.597 339.265 140.923 340.505 142.518C341.744 144.112 342.668 145.944 343.223 147.908C343.779 149.873 343.956 151.931 343.743 153.966C343.53 156.001 342.933 157.973 341.984 159.769L341.781 159.654L341.984 159.769L286.378 265.064C285.092 267.519 283.191 269.569 280.874 270.999C278.557 272.428 275.91 273.184 273.213 273.186Z" fill="#F2F2F2"/>
    <path id="Vector_3" d="M267.677 334.801H16.2092C12.2189 334.796 8.39319 333.153 5.57155 330.231C2.74991 327.309 1.16273 323.347 1.1582 319.214V118.266C1.16273 114.133 2.74991 110.171 5.57155 107.249C8.39319 104.327 12.2189 102.684 16.2092 102.679H267.677C271.668 102.684 275.494 104.327 278.315 107.249C281.137 110.171 282.724 114.133 282.729 118.266V319.214C282.724 323.347 281.137 327.309 278.315 330.231C275.494 333.153 271.668 334.796 267.677 334.801Z" fill="white"/>
    <path id="Vector_4" d="M267.677 336H16.2088C11.9115 335.995 7.79149 334.225 4.7528 331.078C1.7141 327.931 0.00483802 323.665 0 319.214V118.266C0.00483802 113.815 1.7141 109.549 4.7528 106.402C7.79149 103.255 11.9115 101.485 16.2088 101.48H267.677C271.974 101.485 276.094 103.255 279.133 106.402C282.172 109.549 283.881 113.815 283.886 118.266V319.214C283.881 323.665 282.172 327.931 279.133 331.078C276.094 334.225 271.974 335.995 267.677 336ZM16.2088 104.358C12.6482 104.362 9.23447 105.828 6.71669 108.436C4.19892 111.043 2.78267 114.578 2.77865 118.266V319.214C2.78267 322.902 4.19892 326.437 6.71669 329.044C9.23447 331.652 12.6482 333.118 16.2088 333.122H267.677C271.238 333.118 274.651 331.652 277.169 329.044C279.687 326.437 281.103 322.902 281.107 319.214V118.266C281.103 114.578 279.687 111.043 277.169 108.436C274.651 105.828 271.238 104.362 267.677 104.358H16.2088Z" fill="#E6E6E6"/>
    <path id="Vector_5" d="M181.076 168.761C178.155 168.758 175.273 169.458 172.657 170.805C170.041 172.152 167.763 174.11 166.001 176.523C164.111 175.681 162.048 175.338 159.997 175.525C157.947 175.712 155.974 176.423 154.254 177.595C152.535 178.767 151.124 180.362 150.147 182.238C149.17 184.115 148.659 186.213 148.658 188.344H199.986C199.986 185.772 199.497 183.226 198.547 180.85C197.597 178.474 196.204 176.315 194.448 174.496C192.692 172.678 190.607 171.235 188.313 170.251C186.018 169.267 183.559 168.761 181.076 168.761Z" fill="#E6E6E6"/>
    <path id="Vector_6" d="M68.6325 245.415C85.4511 245.415 99.0853 231.296 99.0853 213.879C99.0853 196.461 85.4511 182.342 68.6325 182.342C51.8139 182.342 38.1797 196.461 38.1797 213.879C38.1797 231.296 51.8139 245.415 68.6325 245.415Z" fill="#00B0FF"/>
    <path id="Vector_7" d="M247.004 278.871C245.887 279.144 244.743 279.281 243.595 279.279H40.2905C37.7867 279.283 35.3229 278.628 33.1309 277.375L33.6727 276.569L56.3557 242.744L89.9682 192.631L90.4591 191.897L95.7478 184.013C96.1032 183.482 96.5774 183.049 97.1299 182.749C97.6823 182.45 98.2966 182.293 98.9201 182.293C99.5437 182.293 100.158 182.45 100.71 182.749C101.263 183.049 101.737 183.482 102.092 184.013L119.663 210.203V210.208L129.999 225.622L154.674 262.407L192.098 207.086C192.454 206.558 192.928 206.128 193.479 205.83C194.031 205.533 194.643 205.377 195.265 205.377C195.887 205.377 196.5 205.533 197.051 205.83C197.603 206.128 198.077 206.558 198.433 207.086L222.44 242.571L223.821 244.609L247.004 278.871Z" fill="#3F3D56"/>
    <path id="Vector_8" d="M140.66 201.46C137.056 201.457 133.5 202.321 130.273 203.983C127.045 205.645 124.234 208.06 122.061 211.037C119.729 209.998 117.183 209.575 114.654 209.805C112.124 210.036 109.69 210.914 107.568 212.359C105.447 213.805 103.706 215.774 102.501 218.089C101.296 220.403 100.665 222.992 100.664 225.621H163.991C163.991 222.449 163.388 219.307 162.215 216.375C161.043 213.444 159.324 210.78 157.158 208.537C154.991 206.293 152.419 204.514 149.588 203.299C146.758 202.085 143.724 201.46 140.66 201.46Z" fill="#CCCCCC"/>
    <path id="Vector_9" d="M243.595 279.758H40.2904C38.283 279.76 36.2949 279.352 34.4399 278.557C32.5849 277.763 30.8994 276.597 29.4799 275.127C28.0604 273.657 26.9348 271.912 26.1674 269.991C25.4 268.07 25.006 266.011 25.0078 263.932V143.919C25.0124 139.723 26.624 135.7 29.489 132.733C32.3541 129.766 36.2386 128.097 40.2904 128.093H243.595C247.647 128.097 251.532 129.766 254.397 132.733C257.262 135.7 258.873 139.723 258.878 143.919V263.932C258.88 266.011 258.486 268.07 257.719 269.991C256.952 271.912 255.826 273.658 254.407 275.128C252.987 276.598 251.302 277.764 249.446 278.559C247.591 279.353 245.603 279.761 243.595 279.758ZM40.2904 129.052C36.4842 129.056 32.8351 130.624 30.1437 133.411C27.4523 136.198 25.9384 139.977 25.934 143.919V263.932C25.9323 265.885 26.3024 267.819 27.0232 269.624C27.7441 271.428 28.8015 273.068 30.1349 274.449C31.4684 275.83 33.0518 276.925 34.7944 277.671C36.537 278.418 38.4046 278.801 40.2904 278.799H243.595C245.481 278.801 247.349 278.418 249.092 277.672C250.835 276.926 252.418 275.831 253.752 274.45C255.085 273.069 256.143 271.429 256.863 269.624C257.584 267.819 257.954 265.885 257.952 263.932V143.919C257.947 139.977 256.433 136.198 253.742 133.411C251.051 130.624 247.402 129.056 243.595 129.052H40.2904Z" fill="#3F3D56"/>
  </g>
  <defs>
    <clipPath id="clip0_574:251">
     <rect width="378" height="336" fill="white"/>
    </clipPath>
  </defs>
</svg>
