<svg width="586" height="420" viewBox="0 0 586 420" fill="none" xmlns="http://www.w3.org/2000/svg">
  <g id="undraw_adventure_map_hnin 3">
    <path id="Path 482" d="M370.73 418.932C370.73 418.932 361.748 398.523 388.693 383.216L370.73 418.932Z" fill="#E6E6E6"/>
    <path id="Path 483" d="M359.683 418.56C359.683 418.56 356.943 404.014 335.736 404.139L359.683 418.56Z" fill="#E6E6E6"/>
    <path id="Path 482_2" d="M562.268 418.932C562.268 418.932 550.401 391.969 586 371.747L562.268 418.932Z" fill="#E6E6E6"/>
    <path id="Path 483_2" d="M547.675 418.441C547.675 418.441 544.056 399.223 516.039 399.388L547.675 418.441Z" fill="#E6E6E6"/>
    <path id="Vector" d="M340.33 116.748L328.611 111.002L329.488 110.571L341.207 116.318L340.33 116.748Z" fill="#CBCBCB"/>
    <path id="Vector_2" d="M330.109 116.748L329.232 116.318L340.951 110.571L341.827 111.002L330.109 116.748Z" fill="#CBCBCB"/>
    <path id="Vector_3" d="M242.886 72.2075L242.32 73.2263L245.631 74.7923L246.196 73.7735L242.886 72.2075Z" fill="#CBCBCB"/>
    <path id="Vector_4" d="M311.523 105.961L304.934 102.844L305.5 101.825L312.089 104.942L311.523 105.961ZM298.345 99.7274L291.756 96.6103L292.321 95.5915L298.911 98.7086L298.345 99.7274ZM285.167 93.4934L278.577 90.3766L279.143 89.3577L285.732 92.4746L285.167 93.4934ZM271.988 87.2597L265.399 84.1428L265.964 83.124L272.554 86.2408L271.988 87.2597ZM258.81 81.0259L252.221 77.9091L252.786 76.8903L259.375 80.0071L258.81 81.0259Z" fill="#CBCBCB"/>
    <path id="Vector_5" d="M318.679 108.059L318.113 109.078L321.424 110.644L321.989 109.625L318.679 108.059Z" fill="#CBCBCB"/>
    <path id="Vector_6" d="M68.7205 148.834C68.7205 149.191 68.7079 149.546 68.6828 149.897C68.5421 151.925 67.9872 153.91 67.0475 155.747C67.0402 155.762 67.0316 155.777 67.0244 155.792C66.9806 155.877 66.9357 155.962 66.8896 156.046C66.6101 156.566 66.3 157.071 65.9608 157.559C64.4112 159.801 62.2873 161.656 59.7767 162.96C57.2661 164.264 54.4462 164.978 51.5661 165.037L51.7397 174.254L54.004 173.154L54.4084 173.863L51.7567 175.152L52.0809 192.271L52.0845 192.5L50.3337 192.859L50.3373 192.63L50.8886 165.038C48.5704 165.007 46.2819 164.552 44.1559 163.698C42.03 162.844 40.109 161.609 38.5044 160.064C38.394 159.959 38.2847 159.85 38.1779 159.742L38.1657 159.73C36.8288 158.384 35.7476 156.84 34.9677 155.162C34.9847 155.18 35.0029 155.196 35.0199 155.214C33.2572 151.409 33.1377 147.126 34.6858 143.242C36.2339 139.358 39.3324 136.168 43.3464 134.325C43.4071 134.297 43.469 134.27 43.5297 134.242C47.5003 132.477 52.0445 132.153 56.2617 133.335C60.4788 134.516 64.061 137.118 66.2983 140.623C66.4052 140.789 66.5084 140.958 66.6079 141.128C67.9977 143.494 68.7239 146.143 68.7205 148.834Z" fill="#E5E5E5"/>
    <path id="Vector_7" d="M66.3563 155.8C79.0658 155.8 89.3688 146.289 89.3688 134.557C89.3688 122.825 79.0658 113.314 66.3563 113.314C53.6468 113.314 43.3438 122.825 43.3438 134.557C43.3438 146.289 53.6468 155.8 66.3563 155.8Z" fill="#E5E5E5"/>
    <path id="Vector_8" opacity="0.2" d="M49.3643 120.368C47.2177 125.003 46.9265 130.192 48.5427 135.007C50.1589 139.822 53.5772 143.95 58.1868 146.653C62.7963 149.355 68.2967 150.457 73.7051 149.761C79.1135 149.064 84.0775 146.615 87.71 142.852C86.3987 145.683 84.4361 148.218 81.9583 150.28C79.4804 152.343 76.5464 153.883 73.3597 154.794C70.173 155.706 66.8097 155.967 63.5028 155.56C60.1959 155.152 57.0246 154.086 54.2084 152.435C51.3922 150.783 48.9986 148.587 47.1934 145.997C45.3882 143.407 44.2145 140.486 43.7538 137.436C43.293 134.385 43.5561 131.279 44.5249 128.332C45.4936 125.385 47.1449 122.668 49.3643 120.368Z" fill="black"/>
    <path id="Vector_9" d="M67.6003 193.737L65.25 193.129L65.2549 192.895L65.9592 157.559L65.9944 155.797L65.9951 155.746L66.1184 149.572L66.2966 140.624V140.623L66.4177 134.557H66.4825L66.6065 141.128L66.7678 149.681L66.8833 155.75V155.795L66.8882 156.045V156.046L67.1115 167.876L67.1347 169.051L67.596 193.502L67.6003 193.737Z" fill="#3F3D56"/>
    <path id="Vector_10" d="M70.0794 166.434L66.2754 168.282L66.8055 169.212L70.6096 167.363L70.0794 166.434Z" fill="#3F3D56"/>
    <path id="Vector_11" d="M364.667 65.8062C335.621 64.221 306.487 64.6344 277.508 67.043C263.541 68.2085 249.351 69.4673 235.642 72.2798C224.599 74.5452 211.783 78.3741 204.903 87.2921C203.462 89.089 202.491 91.1693 202.066 93.3702C201.641 95.5711 201.773 97.833 202.452 99.979C204.092 105.063 208.173 109.295 212.519 112.609C222.522 120.237 234.934 124.676 246.02 130.737C266.262 141.802 284.787 156.717 296.678 175.663C301.91 184 306.887 195.086 301.061 204.273C295.353 213.272 282.611 216.373 272.22 217.835C259.196 219.668 245.78 219.171 232.701 218.145C218.362 216.91 204.104 214.982 189.984 212.369C162.323 207.466 134.913 201.229 106.868 198.393C92.8052 196.866 78.6243 196.487 64.4898 197.261C51.7248 198.056 38.8505 199.92 26.8587 204.169C17.618 207.443 7.76784 212.397 2.77637 220.658C-2.03518 228.622 -0.158523 237.805 5.08066 245.153C11.3845 253.993 21.2144 260.051 31.4342 264.479C43.0704 269.521 55.5165 272.788 67.9784 275.568C74.2987 276.977 80.6533 278.251 87.0084 279.519C88.3341 279.783 88.9006 277.903 87.5701 277.638C74.7544 275.082 61.9018 272.517 49.4044 268.817C37.8394 265.392 26.0042 261.005 16.5335 253.815C8.87169 247.997 1.58689 239.5 2.03912 229.84C2.49501 220.101 11.3467 213.301 20.0226 209.115C30.8651 203.885 43.1837 201.337 55.2544 200.005C69.0756 198.583 83.014 198.408 96.872 199.483C124.852 201.448 152.206 207.331 179.639 212.463C206.29 217.449 233.772 222.065 261.084 220.787C271.909 220.28 283.508 218.848 293.067 213.804C297.443 211.495 301.389 208.238 303.613 203.999C305.617 199.967 306.251 195.469 305.431 191.097C303.881 181.494 297.702 172.59 291.537 164.941C284.779 156.645 276.94 149.149 268.197 142.623C258.601 135.494 248.255 129.272 237.314 124.051C231.511 121.231 225.627 118.519 220.097 115.253C214.795 112.121 209.566 108.353 206.328 103.269C203.528 98.8718 203.014 93.8532 205.931 89.3935C208.881 84.8829 213.963 81.7369 218.975 79.438C231.051 73.8992 245.091 72.4166 258.303 70.8973C286.672 67.6465 315.263 66.3306 343.841 66.9603C350.788 67.1111 357.729 67.3766 364.667 67.7567C366.025 67.8304 366.02 65.8797 364.667 65.8062V65.8062Z" fill="black"/>
    <path id="Vector_12" d="M346.24 3.28466L350.627 0.0453658C347.219 -0.301765 345.818 1.41419 345.245 2.77237C342.582 1.7517 339.684 3.08934 339.684 3.08934L348.462 6.03119C348.019 4.93927 347.248 3.98652 346.24 3.28466Z" fill="#3F3D56"/>
    <path id="Vector_13" d="M324.949 13.5397L329.336 10.3004C325.928 9.95325 324.527 11.6692 323.954 13.0274C321.291 12.0067 318.393 13.3444 318.393 13.3444L327.171 16.2862C326.728 15.1943 325.957 14.2415 324.949 13.5397Z" fill="#3F3D56"/>
    <path id="Vector_14" d="M346.24 29.7768L350.627 26.5376C347.219 26.1904 345.818 27.9064 345.245 29.2645C342.582 28.2439 339.684 29.5815 339.684 29.5815L348.462 32.5234C348.019 31.4314 347.248 30.4787 346.24 29.7768Z" fill="#3F3D56"/>
    <g id="Group 27">
      <path id="Ellipse 7" d="M280.467 34.5762C287.767 34.5762 293.685 29.113 293.685 22.3738C293.685 15.6346 287.767 10.1714 280.467 10.1714C273.166 10.1714 267.248 15.6346 267.248 22.3738C267.248 29.113 273.166 34.5762 280.467 34.5762Z" fill="#FF6583"/>
      <path id="Path 63" d="M321.918 59.975H257.071C256.989 59.976 256.908 59.97 256.828 59.9573L287.499 10.9199C287.686 10.6144 287.957 10.3603 288.286 10.1835C288.614 10.0066 288.987 9.91345 289.367 9.91345C289.748 9.91345 290.121 10.0066 290.449 10.1835C290.778 10.3603 291.049 10.6144 291.236 10.9199L311.819 43.8267L312.805 45.401L321.918 59.975Z" fill="#00B0FF"/>
      <path id="Path 65" d="M358.022 59.9756H301.936L312.803 45.4028L313.585 44.3526L327.747 25.3617C327.998 25.0711 328.312 24.8324 328.669 24.6612C329.026 24.49 329.417 24.3901 329.819 24.368C330.221 24.3459 330.623 24.402 330.999 24.5328C331.376 24.6636 331.718 24.866 332.004 25.127C332.077 25.2012 332.145 25.2795 332.208 25.3617L358.022 59.9756Z" fill="#00B0FF"/>
    </g>
    <path id="Vector_15" d="M265.504 172.444C271.651 175.28 275.393 179.025 275.393 183.133C275.393 191.983 258.045 199.158 236.646 199.158C227.342 199.158 218.806 197.8 212.127 195.54C219.221 198.813 229.52 200.874 240.985 200.874C262.385 200.874 279.733 193.7 279.733 184.85C279.733 179.848 274.188 175.382 265.504 172.444Z" fill="#F1F1F1"/>
    <path id="Vector_16" d="M279.177 178.523C286.113 181.723 290.336 185.949 290.336 190.585C290.336 200.571 270.761 208.666 246.614 208.666C236.116 208.666 226.484 207.135 218.947 204.584C226.952 208.278 238.573 210.603 251.511 210.603C275.657 210.603 295.232 202.508 295.232 192.522C295.232 186.878 288.976 181.839 279.177 178.523Z" fill="#F1F1F1"/>
    <path id="Vector_17" d="M260.272 175.121C264.602 177.119 267.239 179.758 267.239 182.653C267.239 188.887 255.017 193.942 239.94 193.942C234.066 194.012 228.223 193.15 222.666 191.393C227.664 193.699 234.92 195.152 242.998 195.152C258.074 195.152 270.296 190.097 270.296 183.862C270.296 180.338 266.39 177.192 260.272 175.121Z" fill="#F1F1F1"/>
    <path id="Vector_18" d="M199.428 173.977C199.428 173.977 200.379 186.817 227.657 186.817C254.935 186.817 263.079 173.977 263.079 173.977H199.428Z" fill="#3F3D56"/>
    <path id="Vector_19" d="M238.145 140.289C234.207 137.527 229.265 136.279 224.352 136.806C228.742 137.783 232.619 140.156 235.303 143.509C237.986 146.861 239.305 150.979 239.027 155.14C238.75 159.301 236.893 163.238 233.784 166.262C230.675 169.285 226.512 171.201 222.025 171.673C226.317 172.629 230.835 172.193 234.818 170.436C238.802 168.679 242.01 165.71 243.901 162.028C245.792 158.345 246.253 154.174 245.205 150.215C244.156 146.256 241.664 142.751 238.145 140.289Z" fill="#3F3D56"/>
    <path id="Vector_20" d="M229.206 134.489H227.346V175.356H229.206V134.489Z" fill="#3F3D56"/>
    <path id="Vector_21" d="M351.435 104.124L351.425 104.108L351.4 103.11L357.227 95.3008L351.407 102.363L351.386 102.574L351.187 94.5919L356.22 86.4955L351.173 93.1897L351.225 76.6531L351.225 76.598L351.224 76.6522L350.889 89.6852L346.303 84.3912L350.875 90.808L350.774 97.9477L346.554 90.9797L350.759 98.9974L350.703 102.967L350.549 113.966L350.538 114.788C350.926 114.791 351.311 114.785 351.692 114.77L351.428 104.206L351.435 104.124Z" fill="#CBCBCB"/>
    <path id="Vector_22" d="M323.537 107.558L323.527 107.542L323.502 106.544L329.328 98.7346L323.509 105.797L323.488 106.008L323.289 98.0256L328.321 89.9293L323.274 96.6234L323.327 80.0868L323.327 80.0317L323.325 80.0859L322.991 93.1189L318.404 87.8249L322.976 94.2417L322.876 101.381L318.655 94.4134L322.861 102.431L322.805 106.401L322.65 117.4L322.639 118.222C323.028 118.225 323.413 118.219 323.793 118.204L323.53 107.639L323.537 107.558Z" fill="#CBCBCB"/>
    <path id="Vector_23" d="M337.177 96.6842L337.167 96.6685L337.142 95.6702L342.969 87.861L337.149 94.923L337.128 95.134L336.929 87.1521L341.962 79.0557L336.915 85.7498L336.968 69.2133L336.967 69.1582L336.966 69.2123L336.632 82.2454L332.045 76.9514L336.617 83.3682L336.517 90.5079L332.296 83.5398L336.501 91.5575L336.445 95.5276L336.291 106.526L336.28 107.348C336.669 107.351 337.053 107.345 337.434 107.33L337.17 96.7658L337.177 96.6842Z" fill="#CBCBCB"/>
    <path id="Vector_24" d="M106.766 286.718C110.874 286.718 114.205 283.644 114.205 279.851C114.205 276.058 110.874 272.983 106.766 272.983C102.657 272.983 99.3262 276.058 99.3262 279.851C99.3262 283.644 102.657 286.718 106.766 286.718Z" fill="#00B0FF"/>
    <path id="Vector_25" d="M503.858 406.619L496.97 408.981L483.822 385.582L493.987 382.096L503.858 406.619Z" fill="#FFB7B7"/>
    <path id="Vector_26" d="M508.094 412.179L485.887 419.796L485.782 419.537C484.931 417.42 485.024 415.079 486.043 413.026C487.062 410.974 488.922 409.379 491.214 408.593L491.215 408.592L504.779 403.94L508.094 412.179Z" fill="#2F2E41"/>
    <path id="Vector_27" d="M436.077 413.221L428.73 413.221L425.234 387.06L436.078 387.061L436.077 413.221Z" fill="#FFB7B7"/>
    <path id="Vector_28" d="M437.353 419.796L413.662 419.795V419.518C413.662 417.261 414.634 415.096 416.363 413.5C418.092 411.903 420.438 411.006 422.883 411.006H422.884L437.354 411.007L437.353 419.796Z" fill="#2F2E41"/>
    <path id="Vector_29" d="M469.716 231.783L467.319 227.357L446.942 236.762L447.541 240.635L443.646 245.337C443.646 245.337 437.054 248.657 438.252 259.721L439.451 270.233L440.949 283.787L430.461 317.257L425.067 361.516L421.172 397.199L440.05 396.369L457.43 338.28L487.995 400.795L508.97 395.816L480.204 333.854L476.608 307.852C476.608 307.852 479.005 294.022 467.618 284.617L469.416 279.638V273.502L475.409 244.231L469.716 231.783Z" fill="#2F2E41"/>
    <path id="Vector_30" opacity="0.2" d="M470.277 295.04L457.092 338.192L457.77 338.368L470.954 295.216L470.277 295.04Z" fill="black"/>
    <path id="Vector_31" d="M469.116 283.787H439.75V286.553H469.116V283.787Z" fill="#3F3D56"/>
    <path id="Vector_32" d="M439.751 288.213C440.413 288.213 440.95 286.974 440.95 285.447C440.95 283.919 440.413 282.68 439.751 282.68C439.089 282.68 438.553 283.919 438.553 285.447C438.553 286.974 439.089 288.213 439.751 288.213Z" fill="#3F3D56"/>
    <path id="Vector_33" d="M460.656 224.628C468.398 220.722 471.243 211.762 467.011 204.615C462.779 197.469 453.073 194.843 445.332 198.749C437.59 202.656 434.745 211.616 438.977 218.762C443.209 225.908 452.915 228.535 460.656 224.628Z" fill="#FFB7B7"/>
    <path id="Vector_34" d="M477.439 206.424C485.244 206.424 491.571 200.584 491.571 193.379C491.571 186.174 485.244 180.333 477.439 180.333C469.634 180.333 463.307 186.174 463.307 193.379C463.307 200.584 469.634 206.424 477.439 206.424Z" fill="#2F2E41"/>
    <path id="Vector_35" d="M495.373 191.981C495.931 193.71 496.094 195.526 495.852 197.316C495.611 199.106 494.97 200.83 493.97 202.379C492.971 203.929 491.634 205.27 490.044 206.319C488.455 207.367 486.647 208.1 484.735 208.471C482.823 208.842 480.849 208.843 478.936 208.474C477.024 208.105 475.215 207.374 473.624 206.328C472.033 205.281 470.695 203.941 469.693 202.392C468.691 200.844 468.048 199.121 467.805 197.331C468.817 200.47 471.071 203.142 474.119 204.817C477.167 206.493 480.786 207.049 484.258 206.375C487.729 205.701 490.799 203.847 492.858 201.181C494.918 198.514 495.815 195.23 495.373 191.981Z" fill="#2F2E41"/>
    <path id="Vector_36" d="M439.541 207.595C439.126 210.967 439.928 214.371 441.822 217.28C443.716 220.189 446.596 222.44 450.016 223.685C453.437 224.929 457.206 225.097 460.741 224.164C464.275 223.23 467.378 221.246 469.567 218.519C471.756 215.793 472.91 212.476 472.85 209.083C472.79 205.689 471.519 202.409 469.235 199.75C466.95 197.091 463.779 195.202 460.214 194.375C456.648 193.548 452.886 193.83 449.512 195.177C446.721 193.099 443.261 193.743 440.448 195.936C437.267 198.415 436.323 200.119 433.855 204.196C436.281 204.51 437.115 207.28 439.541 207.595Z" fill="#2F2E41"/>
    <path id="Vector_37" d="M498.262 251.942C498.083 256.313 497.729 264.915 497.729 265.354C497.729 265.816 490.664 279.319 487.612 285.131V285.134C487.395 285.543 487.2 285.915 487.028 286.242C486.792 286.693 486.421 287.072 485.959 287.334C485.496 287.596 484.962 287.73 484.42 287.721L471.082 287.5C470.349 287.488 469.649 287.216 469.129 286.739C468.608 286.263 468.307 285.619 468.289 284.942L466.801 230.775C466.796 230.596 466.83 230.418 466.901 230.252C466.971 230.086 467.077 229.934 467.212 229.806C467.347 229.678 467.509 229.576 467.687 229.507C467.865 229.437 468.057 229.401 468.251 229.401H485.451C486.178 229.402 486.889 229.591 487.505 229.947C488.12 230.304 488.614 230.813 488.931 231.417L497.186 247.183C497.96 248.665 498.329 250.299 498.262 251.942V251.942Z" fill="#00B0FF"/>
    <path id="Vector_38" d="M468.057 281.225C464.635 279.31 461.56 276.911 458.944 274.115C452.867 267.806 449.171 259.846 448.411 251.432C447.733 244.234 449.28 238.883 453.01 235.528C457.751 231.264 464.205 231.883 464.477 231.912L464.766 231.942L469.138 235.357L467.901 236.707L463.989 233.651C462.791 233.596 457.902 233.584 454.331 236.808C451.044 239.776 449.694 244.645 450.319 251.279C451.042 259.29 454.552 266.871 460.326 272.889C462.817 275.548 465.736 277.837 468.982 279.676L468.057 281.225Z" fill="#00B0FF"/>
    <path id="Vector_39" d="M492.877 260.646L469.572 265.064L469.701 265.642L493.005 261.223L492.877 260.646Z" fill="#3F3D56"/>
    <path id="Vector_40" d="M477.517 229.389L476.879 229.413L478.393 263.644L479.031 263.62L477.517 229.389Z" fill="#3F3D56"/>
    <path id="Vector_41" d="M498.263 251.942C498.084 256.313 497.73 264.915 497.73 265.354C497.73 265.817 490.665 279.319 487.613 285.131L493.302 254.639C493.522 253.466 494.076 252.368 494.907 251.457C495.737 250.546 496.815 249.855 498.03 249.455C498.221 250.272 498.299 251.108 498.263 251.942Z" fill="#3F3D56"/>
    <path id="Vector_42" d="M463.312 315.845C463.816 315.246 464.171 314.552 464.353 313.812C464.535 313.073 464.538 312.305 464.364 311.564C464.19 310.823 463.842 310.126 463.344 309.523C462.847 308.919 462.212 308.424 461.484 308.071L462.64 296.265L455.039 293.866L453.66 310.561C453.1 311.728 453.023 313.044 453.444 314.261C453.864 315.477 454.754 316.509 455.944 317.16C457.133 317.811 458.541 318.037 459.899 317.795C461.257 317.553 462.471 316.859 463.312 315.845Z" fill="#FFB7B7"/>
    <path id="Vector_43" d="M464.304 304.421L450.836 303.97L451.406 244.011C451.396 242.314 451.964 240.658 453.03 239.275C454.096 237.893 455.606 236.855 457.345 236.308C458.971 235.809 460.728 235.808 462.355 236.304C464.2 236.88 465.784 238.007 466.858 239.508C467.932 241.008 468.435 242.795 468.286 244.588L464.304 304.421Z" fill="#CBCBCB"/>
    <path id="Vector_44" d="M582.46 420H314.12C313.934 420 313.754 419.931 313.622 419.81C313.49 419.688 313.416 419.522 313.416 419.35C313.416 419.177 313.49 419.012 313.622 418.89C313.754 418.768 313.934 418.7 314.12 418.7H582.46C582.647 418.7 582.826 418.768 582.958 418.89C583.09 419.012 583.164 419.177 583.164 419.35C583.164 419.522 583.09 419.688 582.958 419.81C582.826 419.931 582.647 420 582.46 420Z" fill="#CBCBCB"/>
  </g>
</svg>
