<svg width="512" height="402" viewBox="0 0 512 402" fill="none" xmlns="http://www.w3.org/2000/svg">
  <g id="undraw_Web_search_re_efla 3" clip-path="url(#clip0_574:828)">
    <path id="Vector" d="M464.811 0.262695H0.199219V297.022H464.811V0.262695Z" fill="#E6E6E6"/>
    <path id="Vector_2" d="M451.525 37.4836H13.4844V279.465H451.525V37.4836Z" fill="white"/>
    <path id="Vector_3" d="M464.612 0H0V19.6854H464.612V0Z" fill="#00B0FF"/>
    <path id="Vector_4" d="M14.6681 13.7127C16.6886 13.7127 18.3265 12.0792 18.3265 10.0642C18.3265 8.04916 16.6886 6.41565 14.6681 6.41565C12.6477 6.41565 11.0098 8.04916 11.0098 10.0642C11.0098 12.0792 12.6477 13.7127 14.6681 13.7127Z" fill="white"/>
    <path id="Vector_5" d="M28.5548 13.7127C30.5753 13.7127 32.2132 12.0792 32.2132 10.0642C32.2132 8.04916 30.5753 6.41565 28.5548 6.41565C26.5344 6.41565 24.8965 8.04916 24.8965 10.0642C24.8965 12.0792 26.5344 13.7127 28.5548 13.7127Z" fill="white"/>
    <path id="Vector_6" d="M42.4416 13.7127C44.462 13.7127 46.0999 12.0792 46.0999 10.0642C46.0999 8.04916 44.462 6.41565 42.4416 6.41565C40.4211 6.41565 38.7832 8.04916 38.7832 10.0642C38.7832 12.0792 40.4211 13.7127 42.4416 13.7127Z" fill="white"/>
    <path id="Vector_7" d="M165.841 62.5912H53.2852V254.358H165.841V62.5912Z" fill="#E6E6E6"/>
    <path id="Vector_8" d="M279.068 62.5912H185.271V115.377H279.068V62.5912Z" fill="#00B0FF"/>
    <path id="Vector_9" d="M279.068 130.077H185.271V186.872H279.068V130.077Z" fill="#E6E6E6"/>
    <path id="Vector_10" d="M279.068 201.572H185.271V254.358H279.068V201.572Z" fill="#E6E6E6"/>
    <path id="Vector_11" d="M411.722 62.5912H299.166V146.162H411.722V62.5912Z" fill="#E6E6E6"/>
    <path id="Vector_12" d="M411.722 170.787H299.166V254.358H411.722V170.787Z" fill="#E6E6E6"/>
    <path id="Vector_13" d="M368.363 152.166V134.174C368.363 127.78 370.91 121.648 375.444 117.127C379.977 112.606 386.126 110.065 392.537 110.065C398.948 110.065 405.097 112.606 409.63 117.127C414.164 121.648 416.711 127.78 416.711 134.174V152.166C416.71 153.024 416.367 153.848 415.758 154.455C415.15 155.062 414.324 155.403 413.463 155.404H371.61C370.75 155.403 369.924 155.062 369.315 154.455C368.707 153.848 368.364 153.024 368.363 152.166Z" fill="#2F2E41"/>
    <path id="Vector_14" d="M428.281 386.306L419.755 388.659L406.596 356.981L419.18 353.508L428.281 386.306Z" fill="#FFB8B8"/>
    <path id="Vector_15" d="M412.99 387.911L429.433 383.372L432.299 393.698L405.502 401.094C405.126 399.738 405.021 398.321 405.194 396.925C405.366 395.528 405.813 394.18 406.508 392.955C407.204 391.731 408.134 390.656 409.246 389.79C410.358 388.925 411.63 388.286 412.99 387.911Z" fill="#2F2E41"/>
    <path id="Vector_16" d="M339.39 392.847H330.543L326.334 358.815H339.391L339.39 392.847Z" fill="#FFB8B8"/>
    <path id="Vector_17" d="M324.223 390.325H341.284V401.039H313.48C313.48 399.632 313.758 398.239 314.298 396.939C314.838 395.639 315.629 394.458 316.627 393.463C317.624 392.469 318.809 391.679 320.112 391.141C321.415 390.603 322.812 390.325 324.223 390.325Z" fill="#2F2E41"/>
    <path id="Vector_18" d="M328.721 202.656C329.353 203.506 330.163 204.208 331.096 204.712C332.029 205.215 333.061 205.509 334.12 205.572C335.179 205.635 336.239 205.466 337.225 205.076C338.211 204.686 339.1 204.085 339.828 203.316L363.345 213.865L361.206 200.672L339.202 192.678C337.825 191.543 336.079 190.952 334.294 191.016C332.509 191.08 330.81 191.794 329.518 193.024C328.226 194.254 327.431 195.914 327.284 197.689C327.138 199.464 327.649 201.232 328.721 202.656H328.721Z" fill="#FFB8B8"/>
    <path id="Vector_19" d="M377.583 281.99C370.195 281.99 362.546 280.893 356.117 277.628C352.704 275.929 349.679 273.546 347.232 270.628C344.785 267.71 342.968 264.319 341.895 260.669C338.545 250.09 342.769 239.698 346.853 229.648C349.384 223.42 351.775 217.538 352.395 211.74L352.612 209.681C353.578 200.435 354.412 192.45 359.032 189.455C361.427 187.903 364.646 187.814 368.875 189.184L408.596 202.052L407.135 277.25L406.894 277.331C406.686 277.4 392.684 281.99 377.583 281.99Z" fill="#2F2E41"/>
    <path id="Vector_20" d="M368.182 165.773C368.182 165.773 387.665 160.016 402.819 162.175C402.819 162.175 394.16 209.673 397.046 225.505C399.933 241.338 346.895 231.623 357.719 216.51L361.327 198.518C361.327 198.518 354.111 191.321 360.605 182.685L368.182 165.773Z" fill="#00B0FF"/>
    <path id="Vector_21" d="M358.598 280.565L334.586 276.075L342.969 211.732C343.533 209.935 356.52 169.169 362.418 166.963C366.7 165.459 371.08 164.245 375.526 163.331L376.381 163.16L371.566 170.363L352.397 216.173L358.598 280.565Z" fill="#2F2E41"/>
    <path id="Vector_22" d="M346.088 384.962L315.062 379.805L332.473 308.901L358.381 211.935L358.637 213.657C358.657 213.785 361.077 226.453 396.991 220.832L397.306 220.783L397.394 221.09L440.799 374.045L405.448 379.921L373.205 268.325L346.088 384.962Z" fill="#2F2E41"/>
    <path id="Vector_23" d="M389.09 292.606L389.109 292.061C389.131 291.457 391.265 231.342 390.552 207.165C389.837 182.905 397.712 161.897 397.792 161.688L397.856 161.519L398.03 161.469C408.219 158.566 417.058 167.23 417.146 167.318L417.27 167.442L414.368 191.318L426.791 278.139L389.09 292.606Z" fill="#2F2E41"/>
    <path id="Vector_24" d="M387.569 154.986C397.357 154.986 405.292 147.072 405.292 137.31C405.292 127.548 397.357 119.634 387.569 119.634C377.781 119.634 369.846 127.548 369.846 137.31C369.846 147.072 377.781 154.986 387.569 154.986Z" fill="#FFB8B8"/>
    <path id="Vector_25" d="M362.643 135.614C362.648 130.557 364.665 125.71 368.25 122.135C371.835 118.559 376.695 116.548 381.765 116.542H385.373C390.443 116.548 395.304 118.559 398.888 122.135C402.473 125.71 404.49 130.557 404.495 135.614V135.973H396.871L394.27 128.711L393.75 135.973H389.809L388.497 132.309L388.235 135.973H362.643V135.614Z" fill="#2F2E41"/>
    <path id="Vector_26" d="M385.825 157.427C385.467 156.944 385.253 156.37 385.208 155.77C385.163 155.171 385.289 154.571 385.571 154.04C389.394 146.787 394.747 133.385 387.642 125.121L387.131 124.527H407.76V155.415L389.02 158.712C388.83 158.746 388.638 158.763 388.445 158.763C387.934 158.763 387.43 158.642 386.974 158.41C386.518 158.177 386.125 157.841 385.825 157.427Z" fill="#2F2E41"/>
    <path id="Vector_27" d="M302.769 29.8994C288.334 17.7517 270.67 10.0503 251.927 7.73215C233.183 5.41403 214.168 8.57924 197.195 16.8426C180.222 25.106 166.023 38.1112 156.327 54.2758C146.63 70.4403 141.853 89.0673 142.578 107.89C143.302 126.713 149.497 144.92 160.408 160.295C171.318 175.671 186.475 187.552 204.033 194.493C221.591 201.435 240.794 203.137 259.304 199.392C277.815 195.648 294.835 186.618 308.293 173.402L427.803 273.974C429.622 275.507 431.977 276.257 434.349 276.059C436.722 275.861 438.919 274.731 440.456 272.917C441.994 271.104 442.746 268.755 442.547 266.389C442.348 264.022 441.215 261.832 439.397 260.298L439.383 260.287L319.873 159.716C333.756 139.844 339.698 115.517 336.535 91.5034C333.371 67.4897 321.329 45.5199 302.769 29.8994ZM295.065 150.031C285.754 161.036 273.381 169.039 259.51 173.03C245.638 177.022 230.892 176.821 217.135 172.453C203.378 168.086 191.228 159.748 182.223 148.494C173.217 137.24 167.76 123.576 166.541 109.229C165.322 94.8821 168.397 80.4969 175.376 67.8925C182.355 55.2881 192.925 45.0307 205.749 38.4174C218.573 31.8041 233.075 29.1319 247.422 30.7388C261.769 32.3456 275.316 38.1593 286.35 47.4447H286.35C293.677 53.61 299.714 61.154 304.116 69.6461C308.519 78.1382 311.202 87.412 312.011 96.938C312.82 106.464 311.74 116.056 308.833 125.166C305.925 134.275 301.247 142.725 295.065 150.031Z" fill="#3F3D56"/>
    <path id="Vector_28" opacity="0.3" d="M192.202 158.722C178.198 146.937 169.151 130.33 166.856 112.2C164.562 94.0701 169.188 75.7422 179.815 60.856C178.42 62.2578 177.07 63.7259 175.767 65.2603C169.586 72.5669 164.907 81.0163 162 90.126C159.092 99.2358 158.012 108.828 158.821 118.354C159.63 127.88 162.313 137.153 166.716 145.646C171.119 154.138 177.156 161.682 184.482 167.847C191.808 174.012 200.28 178.678 209.415 181.578C218.549 184.478 228.166 185.555 237.718 184.748C247.27 183.941 256.569 181.265 265.084 176.874C273.599 172.483 281.163 166.462 287.345 159.156C288.645 157.62 289.869 156.046 291.017 154.436C278.091 167.388 260.754 175.019 242.448 175.813C224.142 176.607 206.206 170.507 192.202 158.722Z" fill="black"/>
    <path id="Vector_29" d="M393.259 233.557C394.29 233.808 395.363 233.831 396.403 233.624C397.444 233.417 398.426 232.985 399.28 232.358C400.135 231.731 400.842 230.926 401.35 229.997C401.859 229.069 402.157 228.04 402.224 226.984L427.071 220.106L416.971 211.324L394.925 219.202C393.139 219.207 391.417 219.866 390.085 221.053C388.753 222.239 387.904 223.872 387.699 225.642C387.493 227.411 387.946 229.194 388.971 230.653C389.996 232.112 391.522 233.145 393.259 233.557Z" fill="#FFB8B8"/>
    <path id="Vector_30" d="M403.586 229.916L402.074 215.59L422.829 204.17L409.297 187.834L411.505 169.482L417.004 167.132L417.175 167.352C419.768 170.676 442.507 199.938 442.507 203.556C442.507 207.271 438.157 218.182 432.205 221.15C426.464 224.012 404.906 229.576 403.991 229.812L403.586 229.916Z" fill="#2F2E41"/>
    <path id="Vector_31" d="M511.279 402H236.349C236.157 402 235.974 401.924 235.838 401.789C235.703 401.654 235.627 401.471 235.627 401.28C235.627 401.09 235.703 400.906 235.838 400.772C235.974 400.637 236.157 400.561 236.349 400.561H511.279C511.47 400.561 511.654 400.637 511.789 400.772C511.924 400.906 512 401.09 512 401.28C512 401.471 511.924 401.654 511.789 401.789C511.654 401.924 511.47 402 511.279 402Z" fill="#CCCCCC"/>
  </g>
  <defs>
    <clipPath id="clip0_574:828">
      <rect width="512" height="402" fill="white"/>
    </clipPath>
  </defs>
</svg>
